{
	"asset":{
		"generator":"Khronos glTF Blender I/O v4.2.57",
		"version":"2.0"
	},
	"scene":0,
	"scenes":[
		{
			"name":"Scene",
			"nodes":[
				0
			]
		}
	],
	"nodes":[
		{
			"mesh":0,
			"name":"Torus"
		}
	],
	"meshes":[
		{
			"name":"Torus",
			"primitives":[
				{
					"attributes":{
						"POSITION":0,
						"NORMAL":1,
						"TEXCOORD_0":2
					},
					"indices":3
				}
			]
		}
	],
	"accessors":[
		{
			"bufferView":0,
			"componentType":5126,
			"count":1760,
			"max":[
				0.25,
				0.049491073936223984,
				0.25
			],
			"min":[
				-0.25,
				-0.049491073936223984,
				-0.25
			],
			"type":"VEC3"
		},
		{
			"bufferView":1,
			"componentType":5126,
			"count":1760,
			"type":"VEC3"
		},
		{
			"bufferView":2,
			"componentType":5126,
			"count":1760,
			"type":"VEC2"
		},
		{
			"bufferView":3,
			"componentType":5123,
			"count":2640,
			"type":"SCALAR"
		}
	],
	"bufferViews":[
		{
			"buffer":0,
			"byteLength":21120,
			"byteOffset":0,
			"target":34962
		},
		{
			"buffer":0,
			"byteLength":21120,
			"byteOffset":21120,
			"target":34962
		},
		{
			"buffer":0,
			"byteLength":14080,
			"byteOffset":42240,
			"target":34962
		},
		{
			"buffer":0,
			"byteLength":5280,
			"byteOffset":56320,
			"target":34963
		}
	],
	"buffers":[
		{
			"byteLength":61600,
			"uri":"untitled1.bin"
		}
	]
}
